<svg xmlns="http://www.w3.org/2000/svg" viewBox="0 0 394 421" enable-background="new 0 0 394 421"><style type="text/css">.st0{fill:#010101;}</style><path class="st0" d="M138.2 256.5l-11.1.8c0 2.2.1 4 .1 5.3.3 13.8 8.1 16.7 14.6 16.7.9 0 1.5-.1 1.5-.1h.2l18.5-1.8c.7-2.2.8-3.8.8-3.8s-2.5-116.5-3.1-131.2c-.1-3.3-1.1-5.9-2.4-8-6.8-.5-12.9-1-17.5-1.4l-2.1-.1c-4.5 0-7.9 1.2-10.1 3.5-3.3 3.5-3 8.9-3 8.9v.2c0 .2.1 3.3.2 8.3 9 .5 15.6.9 15.6.9s10.3 2.2 10.8 12.8c.5 11.5.4 76.2.4 76.2s1.2 10.5-13.4 12.8zM102.7 259l-18.6 1.4s-15.3 2.1-15.7-14.7c-.2-12.4-1.8-82.5-1.8-82.5s-1.1-13 14.7-11.9c4.7.3 11.8.7 19.4 1.2-.2-11.6-.4-21.7-.5-29.5-9.9-.7-19.5-1.5-26-2.2-20.8-2.3-19.5 15.2-19.5 15.2s2.5 128.7 3 144.4c.6 18.8 20.8 15.7 20.8 15.7l25-2.7c-.3-9.3-.5-21.1-.8-34.4zM325.3 99.5c-.9-24.1-22.1-29.2-22.1-29.2s-73.4-11.1-105.5-15.1c-32.2-4-30.2 27.1-30.2 27.1s7.3 227.2 8.1 255.3c.9 33.5 32.1 28.2 32.1 28.2l110.6-19.1c20.1-4 21.1-29.1 21.1-29.1s-13-191.9-14.1-218.1zm-24.7 192.9l-82.2 8.5s-23.9 3.6-24.5-25.4c-.4-21.4-5.1-144.2-5.1-144.2s-1.6-22.5 23-20.7c25.1 1.9 85.4 6.4 85.4 6.4s16.1 3.8 16.8 22.2c.8 20 7.7 131 7.7 131s1.8 18.3-21.1 22.2zM217.9 296.6l31.7-3.3c-1.5-32.3-7.1-157.7-7.9-175.9v-.3c-11.6-.9-22.6-1.7-30.3-2.3-.8-.1-1.7-.1-2.5-.1-5.3 0-9.3 1.4-11.9 4.2-4.4 4.6-3.9 11.8-3.9 11.9v.1c0 .1 0 .8.1 1.9 12.9 1.1 22.6 2 22.6 2s13.9 3.1 14.5 18.2c.6 16.4 4.6 105.2 4.6 105.2s1.6 15-18.2 18.2l-18.4 1.8c1.3 15.1 10.1 18.4 17.5 18.4 1.1 0 1.8-.1 1.8-.1.2.1.3.1.3.1zM169.5 281.1l-25.6 2.4s-20.7 3-21.1-20.8c-.3-17.6-2.4-117.1-2.4-117.1s-1.4-18.4 19.8-16.9c6.2.4 15.1 1.2 24.5 1.9-.6-18.9-1.1-34-1.3-41.9-12.4-1.2-24.3-2.4-32.9-3.4-28-3.2-26.3 21.6-26.3 21.6s3.3 182.6 4 205c.8 26.7 28 22.4 28 22.4l34.8-4.4c-.3-10.6-.8-28-1.5-48.8z"/></svg>