<svg id="S_Close_24_N" xmlns="http://www.w3.org/2000/svg" width="24" height="24" viewBox="0 0 24 24">
  <defs>
    <style>
      .cls-1 {
        fill: #707070;
      }

      
    </style>
  </defs>
  <title>S_Close_24_N</title>
  <path class="cls-1" d="M17.657,4.222L12,9.879,6.343,4.222a0.5,0.5,0,0,0-.707,0L4.222,5.636a0.5,0.5,0,0,0,0,.707L9.879,12,4.222,17.657a0.5,0.5,0,0,0,0,.707l1.414,1.414a0.5,0.5,0,0,0,.707,0L12,14.121l5.657,5.657a0.5,0.5,0,0,0,.707,0l1.414-1.414a0.5,0.5,0,0,0,0-.707L14.121,12l5.657-5.657a0.5,0.5,0,0,0,0-.707L18.364,4.222A0.5,0.5,0,0,0,17.657,4.222Z"/>
  </svg>