<svg id="S_Help_24_N" xmlns="http://www.w3.org/2000/svg" width="24" height="24" viewBox="0 0 24 24">
  <defs>
    <style>
      .cls-1 {
        fill: #707070;
      }

      
    </style>
  </defs>
  <title>S_Help_24_N</title>
  <path class="cls-1" d="M12,2.05A9.95,9.95,0,1,0,21.95,12,9.95,9.95,0,0,0,12,2.05ZM11.969,18.993a1.422,1.422,0,1,1,0-2.844A1.359,1.359,0,0,1,13.4,17.561,1.332,1.332,0,0,1,11.969,18.993Zm0.757-5.729a2.15,2.15,0,0,0,.368,1.084,0.106,0.106,0,0,1-.1.164h-1.8a0.265,0.265,0,0,1-.246-0.1,2.206,2.206,0,0,1-.532-1.391c0-1.637,2.68-2.639,2.68-4.276a1.635,1.635,0,0,0-1.9-1.493,5.908,5.908,0,0,0-2.476.511,0.089,0.089,0,0,1-.143-0.082V6.063a0.2,0.2,0,0,1,.082-0.2A6.994,6.994,0,0,1,11.7,5.224c2.393,0,3.928,1.371,3.928,3.335C15.631,10.81,12.726,12.1,12.726,13.265Z"/>
  </svg>