<svg id="S_Settings_24_N" xmlns="http://www.w3.org/2000/svg" width="24" height="24" viewBox="0 0 24 24">
  <defs>
    <style>
      .cls-1 {
        fill: #707070;
      }

      
    </style>
  </defs>
  <title>S_Settings_24_N</title>
  <path class="cls-1" d="M21,10.35H19.5a0.243,0.243,0,0,1-.236-0.187,7.441,7.441,0,0,0-.832-2,0.243,0.243,0,0,1,.035-0.3l1.06-1.06a1,1,0,0,0,0-1.414l-0.919-.919a1,1,0,0,0-1.414,0l-1.06,1.06a0.243,0.243,0,0,1-.3.035,7.435,7.435,0,0,0-2-.832A0.243,0.243,0,0,1,13.65,4.5V3a1,1,0,0,0-1-1h-1.3a1,1,0,0,0-1,1V4.5a0.243,0.243,0,0,1-.187.236,7.435,7.435,0,0,0-2,.832,0.243,0.243,0,0,1-.3-0.035L6.8,4.469a1,1,0,0,0-1.414,0l-0.919.919a1,1,0,0,0,0,1.414l1.06,1.06a0.243,0.243,0,0,1,.035.3,7.441,7.441,0,0,0-.832,2,0.243,0.243,0,0,1-.236.187H3a1,1,0,0,0-1,1v1.3a1,1,0,0,0,1,1H4.5a0.243,0.243,0,0,1,.236.187,7.441,7.441,0,0,0,.832,2,0.243,0.243,0,0,1-.035.3L4.469,17.2a1,1,0,0,0,0,1.414l0.919,0.919a1,1,0,0,0,1.414,0l1.06-1.06a0.243,0.243,0,0,1,.3-0.035,7.441,7.441,0,0,0,2,.832,0.243,0.243,0,0,1,.187.236V21a1,1,0,0,0,1,1h1.3a1,1,0,0,0,1-1V19.5a0.243,0.243,0,0,1,.187-0.236,7.441,7.441,0,0,0,2-.832,0.243,0.243,0,0,1,.3.035l1.06,1.06a1,1,0,0,0,1.414,0l0.919-.919a1,1,0,0,0,0-1.414l-1.06-1.06a0.243,0.243,0,0,1-.035-0.3,7.441,7.441,0,0,0,.832-2A0.243,0.243,0,0,1,19.5,13.65H21a1,1,0,0,0,1-1v-1.3A1,1,0,0,0,21,10.35Zm-9,5.4A3.75,3.75,0,1,1,15.75,12,3.75,3.75,0,0,1,12,15.75Z"/>
  </svg>